<svg xmlns="http://www.w3.org/2000/svg" width="32" height="32" viewBox="0 0 32 32">
  <!-- Background Shield -->
  <path d="M16 2 L28 6 L28 14 C28 21.732 22.732 27 16 27 C9.268 27 4 21.732 4 14 L4 6 L16 2Z" fill="#722F37"/>
  
  <!-- Border -->
  <path d="M16 3 L27 6.5 L27 14 C27 21.18 22.18 26 16 26 C9.82 26 5 21.18 5 14 L5 6.5 L16 3Z" fill="none" stroke="#B8B8B8" stroke-width="1"/>
  
  <!-- Crown -->
  <path d="M12 10 L16 8 L20 10 L19 13 L13 13 L12 10Z" fill="white"/>
  
  <!-- Letter V -->
  <path d="M12 12 L16 20 L20 12" stroke="white" stroke-width="2" fill="none"/>
  
  <!-- Stars -->
  <circle cx="13" cy="18" r="0.5" fill="white"/>
  <circle cx="16" cy="18" r="0.5" fill="white"/>
  <circle cx="19" cy="18" r="0.5" fill="white"/>
</svg> 